# 3ds Max Wavefront OBJ Exporter v0.99 - (c)2007 guruware
# File Created: 20.10.2022 22:40:51

#
# object shelf_plate
#

v  -4.402010 3.479039 -4.626272
v  -4.920568 3.479038 -4.517418
v  -4.303923 3.479039 -4.517589
v  -4.832327 3.479038 -4.626275
v  -0.994326 3.479039 -4.517585
v  -4.920809 3.479039 -4.213186
v  3.411799 3.479040 -4.213191
v  -4.920809 3.479038 -4.419260
v  -0.994325 3.479039 -4.942008
v  -0.994327 3.479040 -10.346487
v  3.411802 3.479041 -11.075306
v  -4.920809 3.479039 -11.075294
v  -4.303924 3.479039 -10.770889
v  -0.994326 3.479040 -10.770905
v  -4.920808 3.479040 -10.869240
v  -4.920638 3.479040 -10.771079
v  -4.832325 3.479039 -10.662209
v  -4.402007 3.479039 -10.662203
v  -4.920565 3.064977 -10.771082
v  -4.920808 3.064977 -10.869249
v  -4.303924 3.064977 -10.770899
v  -4.402009 3.064977 -10.662212
v  -4.832326 3.064977 -10.662209
v  -0.994327 3.064977 -4.942002
v  -4.303923 3.064977 -4.517591
v  -4.920812 3.064976 -4.213189
v  -4.920812 3.064976 -4.419254
v  -4.920639 3.064976 -4.517412
v  -0.994326 3.064977 -4.517585
v  3.411799 3.064978 -4.213198
v  -0.994325 3.064978 -10.346493
v  3.411802 3.064979 -11.075303
v  -0.994326 3.064978 -10.770901
v  -4.920811 3.064978 -11.075301
v  -4.832325 3.064976 -4.626269
v  -4.402009 3.064976 -4.626279
v  3.411798 3.272009 -4.093666
v  3.411799 3.272010 -11.194828
v  -4.920810 3.272008 -11.194833
v  -4.920809 3.272007 -4.093648
v  -5.424019 3.379039 -10.346486
v  -5.324019 3.479039 -10.346484
v  -5.324020 3.479038 -4.941997
v  -5.424020 3.379039 -4.941998
v  -5.324018 3.064978 -10.346491
v  -5.424019 3.164978 -10.346489
v  -5.424020 3.164976 -4.942001
v  -5.324020 3.064976 -4.942003
v  -0.994325 3.479039 -5.525692
v  -0.994326 3.479039 -6.938062
v  -0.994326 3.479040 -8.350432
v  -0.994327 3.479040 -9.762803
v  -5.324019 3.479039 -9.762800
v  -4.661544 3.479039 -8.350428
v  -4.661544 3.479039 -6.938054
v  -5.324020 3.479039 -5.525681
v  3.411799 3.479040 -4.954299
v  3.411800 3.479041 -6.747599
v  3.411801 3.479041 -8.540898
v  3.411802 3.479041 -10.334198
v  -5.424019 3.164977 -9.762805
v  -4.761544 3.164977 -8.350431
v  -4.761544 3.164977 -6.938059
v  -5.424020 3.164977 -5.525686
v  -5.424020 3.379039 -5.525682
v  -4.761544 3.379039 -6.938056
v  -4.761544 3.379039 -8.350429
v  -5.424019 3.379039 -9.762802
v  -5.324020 3.064977 -5.525687
v  -4.661544 3.064977 -6.938060
v  -4.661544 3.064977 -8.350433
v  -5.324019 3.064977 -9.762806
v  -0.994325 3.064978 -9.762808
v  -0.994326 3.064978 -8.350434
v  -0.994326 3.064978 -6.938061
v  -0.994327 3.064977 -5.525687
v  3.411802 3.064979 -10.334195
v  3.411801 3.064979 -8.540898
v  3.411800 3.064978 -6.747602
v  3.411799 3.064978 -4.954305
# 80 vertices

vn -0.000001 1.000000 0.000001
vn -0.000001 1.000000 -0.000002
vn -0.000000 1.000000 -0.000000
vn -0.000001 1.000000 -0.000002
vn -0.000001 1.000000 0.000001
vn -0.000001 1.000000 0.000002
vn -0.000000 1.000000 -0.000001
vn -0.000001 1.000000 -0.000001
vn -0.000000 1.000000 0.000000
vn -0.000000 1.000000 -0.000000
vn -0.000001 1.000000 -0.000001
vn -0.000000 1.000000 -0.000001
vn -0.000001 1.000000 -0.000002
vn -0.000001 1.000000 -0.000003
vn -0.000000 1.000000 -0.000000
vn -0.000001 1.000000 -0.000001
vn -0.000000 1.000000 -0.000000
vn -0.000001 1.000000 -0.000003
vn -0.000000 1.000000 0.000000
vn -0.000000 1.000000 0.000000
vn -0.000000 1.000000 -0.000001
vn -0.000000 1.000000 0.000000
vn -0.000000 1.000000 0.000000
vn -0.000000 1.000000 0.000000
vn -0.000000 1.000000 0.000000
vn -0.000000 1.000000 0.000000
vn -0.000000 1.000000 0.000000
vn -0.000000 1.000000 0.000000
vn -0.000000 1.000000 0.000000
vn -0.000000 1.000000 0.000000
vn -0.000000 1.000000 0.000000
vn -0.000000 1.000000 0.000000
vn -0.000000 1.000000 0.000000
vn 0.000000 1.000000 -0.000000
vn 0.000000 1.000000 0.000001
vn -0.000000 1.000000 0.000000
vn 0.000000 1.000000 0.000001
vn 0.000000 1.000000 -0.000000
vn 0.000000 1.000000 0.000001
vn -0.000000 1.000000 -0.000000
vn -0.000000 1.000000 0.000000
vn -0.000000 1.000000 0.000000
vn 0.000000 1.000000 -0.000000
vn -0.000000 1.000000 0.000000
vn -0.000000 1.000000 0.000000
vn 0.000000 1.000000 0.000001
vn 0.000000 1.000000 -0.000000
vn 0.000000 1.000000 -0.000000
vn 0.000000 1.000000 0.000001
vn 0.000000 1.000000 0.000004
vn 0.000001 1.000000 0.000007
vn 0.000000 1.000000 0.000004
vn 0.000000 1.000000 0.000001
vn 0.000000 1.000000 0.000001
vn -0.976052 0.000004 -0.217536
vn -0.976051 0.000004 -0.217541
vn -0.976052 -0.000006 0.217536
vn -0.976052 -0.000006 0.217536
vn -0.976051 -0.000006 0.217540
vn -0.976052 0.000004 -0.217536
vn -0.000000 -1.000000 0.000001
vn 0.000000 -1.000000 0.000000
vn 0.000000 -1.000000 -0.000001
vn -0.000000 -1.000000 0.000001
vn -0.000000 -1.000000 -0.000002
vn -0.000000 -1.000000 -0.000004
vn -0.000000 -1.000000 -0.000002
vn -0.000000 -1.000000 0.000001
vn 0.000000 -1.000000 -0.000001
vn 0.000000 -1.000000 -0.000000
vn 0.000000 -1.000000 -0.000000
vn 0.000000 -1.000000 -0.000000
vn 0.000000 -1.000000 -0.000000
vn 0.000000 -1.000000 -0.000000
vn 0.000000 -1.000000 -0.000000
vn 0.000000 -1.000000 -0.000001
vn 0.000000 -1.000000 -0.000001
vn 0.000001 -1.000000 -0.000001
vn 0.000001 -1.000000 -0.000001
vn 0.000001 -1.000000 -0.000000
vn 0.000000 -1.000000 -0.000001
vn 0.000000 -1.000000 -0.000001
vn 0.000000 -1.000000 -0.000001
vn 0.000000 -1.000000 -0.000001
vn 0.000000 -1.000000 -0.000001
vn 0.000000 -1.000000 -0.000001
vn 0.000000 -1.000000 -0.000000
vn 0.000000 -1.000000 -0.000000
vn 0.000000 -1.000000 -0.000000
vn 0.000000 -1.000000 -0.000001
vn 0.000000 -1.000000 -0.000000
vn 0.000000 -1.000000 -0.000000
vn 0.000000 -1.000000 -0.000000
vn 0.000000 -1.000000 -0.000000
vn 0.000000 -1.000000 -0.000000
vn 0.000000 -1.000000 -0.000000
vn 0.000000 -1.000000 -0.000000
vn 0.000000 -1.000000 -0.000000
vn 0.000000 -1.000000 -0.000000
vn 0.000000 -1.000000 -0.000001
vn 0.000000 -1.000000 -0.000001
vn 0.000000 -1.000000 0.000000
vn 0.000000 -1.000000 -0.000001
vn 0.000000 -1.000000 -0.000001
vn 0.000000 -1.000000 -0.000000
vn 0.000000 -1.000000 -0.000000
vn 0.000000 -1.000000 -0.000000
vn 0.000000 -1.000000 -0.000001
vn 0.000001 -1.000000 0.000002
vn 0.000000 -1.000000 -0.000001
vn 0.000001 -1.000000 -0.000000
vn 0.000000 -1.000000 -0.000001
vn 0.000001 -1.000000 0.000002
vn 0.000000 -1.000000 0.000003
vn 1.000000 -0.000000 0.000004
vn 1.000000 -0.000000 0.000004
vn 1.000000 -0.000000 0.000016
vn 1.000000 -0.000000 0.000001
vn 1.000000 -0.000000 0.000001
vn 1.000000 -0.000000 0.000001
vn 1.000000 -0.000000 0.000001
vn 1.000000 -0.000000 0.000001
vn 1.000000 -0.000000 0.000001
vn 1.000000 -0.000000 -0.000006
vn 1.000000 -0.000000 -0.000006
vn 1.000000 -0.000000 -0.000024
vn -0.000000 0.000015 -1.000000
vn 0.000002 0.000014 -1.000000
vn -0.000000 0.000015 -1.000000
vn -0.000000 0.000015 -1.000000
vn -0.000001 0.000016 -1.000000
vn -0.000001 0.000016 -1.000000
vn -0.000000 0.000015 -1.000000
vn -0.000000 0.000015 -1.000000
vn -0.000001 0.000016 -1.000000
vn -0.000001 0.000016 -1.000000
vn -0.000000 0.000015 -1.000000
vn -0.000001 0.000016 -1.000000
vn 0.000001 -0.000021 1.000000
vn 0.000004 0.000005 1.000000
vn 0.000005 0.000007 1.000000
vn 0.000004 0.000005 1.000000
vn 0.000001 -0.000021 1.000000
vn 0.000001 -0.000023 1.000000
vn -1.000000 -0.000002 -0.000000
vn -1.000000 -0.000002 0.000000
vn -1.000000 -0.000000 -0.000002
vn -1.000000 -0.000002 0.000000
vn -1.000000 -0.000002 -0.000000
vn -1.000000 -0.000005 0.000002
vn -1.000000 0.000003 0.000007
vn -1.000000 0.000000 0.000867
vn -1.000000 0.000002 0.000005
vn -0.999999 -0.000073 0.001186
vn -1.000000 0.000003 0.000007
vn -1.000000 0.000013 0.000014
vn -1.000000 0.000003 0.000007
vn -0.999999 -0.000073 0.001186
vn -1.000000 0.000000 0.000867
vn -0.776827 -0.000027 0.629714
vn -0.776670 -0.000112 0.629908
vn -0.776614 -0.000142 0.629977
vn -0.776670 -0.000112 0.629908
vn -0.776827 -0.000027 0.629714
vn -0.776883 0.000003 0.629646
vn 0.742389 -0.000015 0.669969
vn 0.742393 -0.000017 0.669965
vn 0.742394 -0.000018 0.669963
vn 0.742393 -0.000017 0.669965
vn 0.742389 -0.000015 0.669969
vn 0.742388 -0.000015 0.669971
vn -0.000004 -0.000011 1.000000
vn -0.000004 -0.000012 1.000000
vn -0.000015 -0.000023 1.000000
vn -0.000004 -0.000012 1.000000
vn -0.000004 -0.000011 1.000000
vn 0.000007 -0.000000 1.000000
vn -0.999999 -0.000073 0.001186
vn -0.999998 -0.000026 0.001839
vn -1.000000 0.000000 0.000867
vn -0.999998 -0.000026 0.001839
vn -0.999999 -0.000073 0.001186
vn -0.999997 -0.000176 0.002472
vn 0.000002 -0.000015 1.000000
vn -0.000001 -0.000016 1.000000
vn 0.000002 -0.000013 1.000000
vn 0.000002 -0.000013 1.000000
vn -0.000000 0.000016 1.000000
vn 0.000000 0.000014 1.000000
vn 0.000002 -0.000015 1.000000
vn 0.000002 -0.000013 1.000000
vn 0.000000 0.000014 1.000000
vn 0.000003 -0.000015 1.000000
vn 0.000002 -0.000015 1.000000
vn 0.000000 0.000014 1.000000
vn 0.000001 0.000007 -1.000000
vn 0.000002 0.000001 -1.000000
vn 0.000002 0.000000 -1.000000
vn 0.000002 0.000001 -1.000000
vn 0.000001 0.000007 -1.000000
vn 0.000001 0.000007 -1.000000
vn -1.000000 0.000002 -0.000000
vn -1.000000 0.000002 0.000000
vn -1.000000 0.000005 -0.000002
vn -1.000000 0.000002 0.000000
vn -1.000000 0.000002 -0.000000
vn -1.000000 0.000000 0.000002
vn -0.999999 0.000075 -0.001174
vn -1.000000 0.000007 0.000003
vn -1.000000 0.000004 0.000002
vn -1.000000 0.000007 -0.000878
vn -1.000000 0.000007 0.000003
vn -0.999999 0.000075 -0.001174
vn -1.000000 0.000007 0.000003
vn -1.000000 0.000007 -0.000878
vn -1.000000 0.000012 0.000000
vn -0.776631 0.000095 -0.629956
vn -0.776779 0.000015 -0.629774
vn -0.776831 -0.000013 -0.629709
vn -0.776779 0.000015 -0.629774
vn -0.776631 0.000095 -0.629956
vn -0.776578 0.000123 -0.630021
vn 0.742379 0.000010 -0.669981
vn 0.742372 0.000006 -0.669988
vn 0.742369 0.000005 -0.669991
vn 0.742372 0.000006 -0.669988
vn 0.742379 0.000010 -0.669981
vn 0.742381 0.000011 -0.669978
vn -0.000007 -0.000000 -1.000000
vn -0.000008 0.000001 -1.000000
vn -0.000022 0.000016 -1.000000
vn -0.000008 0.000001 -1.000000
vn -0.000007 -0.000000 -1.000000
vn 0.000007 -0.000015 -1.000000
vn -0.999998 0.000030 -0.001861
vn -0.999999 0.000075 -0.001174
vn -0.999997 0.000170 -0.002453
vn -0.999999 0.000075 -0.001174
vn -0.999998 0.000030 -0.001861
vn -1.000000 0.000007 -0.000878
vn 0.000002 0.500027 0.866010
vn 0.000000 0.499988 0.866032
vn 0.000000 0.499987 0.866033
vn 0.000000 0.499988 0.866032
vn 0.000002 0.500027 0.866010
vn 0.000002 0.500028 0.866009
vn -0.000001 0.500026 -0.866010
vn 0.000000 0.499978 -0.866038
vn 0.000000 0.499978 -0.866038
vn 0.000000 0.499978 -0.866038
vn -0.000001 0.500026 -0.866010
vn -0.000001 0.500027 -0.866010
vn 0.000001 -0.500008 -0.866021
vn -0.000000 -0.499988 -0.866032
vn -0.000000 -0.499988 -0.866032
vn -0.000000 -0.499988 -0.866032
vn 0.000001 -0.500008 -0.866021
vn 0.000001 -0.500008 -0.866021
vn 0.000001 -0.500036 0.866004
vn 0.000002 -0.500008 0.866021
vn 0.000002 -0.500008 0.866021
vn 0.000002 -0.500008 0.866021
vn 0.000001 -0.500036 0.866004
vn 0.000001 -0.500037 0.866004
vn -0.699913 0.699914 0.142278
vn -0.696378 0.696379 0.173535
vn -0.696378 0.696379 -0.173533
vn -0.696378 0.696379 -0.173533
vn -0.699913 0.699914 -0.142279
vn -0.699913 0.699914 0.142278
vn -0.696378 -0.696379 0.173533
vn -0.699913 -0.699914 0.142279
vn -0.699913 -0.699914 -0.142278
vn -0.699913 -0.699914 -0.142278
vn -0.696378 -0.696379 -0.173535
vn -0.696378 -0.696379 0.173533
vn -0.000000 1.000000 -0.000000
vn -0.000000 1.000000 0.000000
vn -0.000000 1.000000 0.000000
vn -0.000000 1.000000 0.000000
vn -0.000000 1.000000 0.000000
vn -0.000000 1.000000 -0.000000
vn -0.000000 1.000000 0.000000
vn -0.000000 1.000000 0.000000
vn -0.000000 1.000000 0.000000
vn -0.000000 1.000000 0.000000
vn -0.000000 1.000000 0.000000
vn -0.000000 1.000000 0.000000
vn -0.000000 1.000000 0.000000
vn -0.000000 1.000000 0.000000
vn -0.000000 1.000000 0.000000
vn -0.000000 1.000000 0.000000
vn -0.000000 1.000000 0.000000
vn -0.000000 1.000000 0.000000
vn -0.000000 1.000000 0.000000
vn -0.000000 1.000000 0.000000
vn -0.000000 1.000000 0.000000
vn -0.000000 1.000000 0.000000
vn -0.000000 1.000000 0.000000
vn -0.000000 1.000000 0.000000
vn -0.000000 1.000000 0.000000
vn -0.000000 1.000000 0.000000
vn -0.000000 1.000000 -0.000000
vn -0.000000 1.000000 -0.000000
vn -0.000000 1.000000 0.000000
vn -0.000000 1.000000 0.000000
vn -0.000000 1.000000 0.000000
vn -0.000000 1.000000 0.000000
vn -0.000000 1.000000 0.000000
vn -0.000000 1.000000 0.000000
vn -0.000000 1.000000 0.000000
vn -0.000000 1.000000 0.000000
vn -0.000000 1.000000 0.000000
vn -0.000000 1.000000 0.000000
vn -0.000000 1.000000 0.000000
vn -0.000000 1.000000 0.000000
vn -0.000000 1.000000 0.000000
vn -0.000000 1.000000 0.000000
vn -0.000000 1.000000 0.000000
vn -0.000000 1.000000 0.000000
vn -0.000000 1.000000 0.000000
vn -0.000000 1.000000 0.000000
vn -0.000000 1.000000 0.000000
vn -0.000000 1.000000 0.000000
vn -1.000000 0.000000 -0.000000
vn -1.000000 0.000000 -0.000000
vn -0.976052 0.000003 -0.217537
vn -0.976052 0.000003 -0.217537
vn -0.976051 0.000003 -0.217541
vn -1.000000 0.000000 -0.000000
vn -0.976051 0.000003 -0.217541
vn -0.976052 0.000003 -0.217537
vn -0.976051 0.000004 -0.217541
vn -0.976051 0.000004 -0.217541
vn -0.976052 0.000004 -0.217536
vn -0.976051 0.000003 -0.217541
vn -1.000000 -0.000002 -0.000000
vn -1.000000 -0.000002 -0.000000
vn -0.976052 -0.000005 0.217536
vn -0.976052 -0.000005 0.217536
vn -0.976051 -0.000005 0.217540
vn -1.000000 -0.000002 -0.000000
vn -0.976051 -0.000005 0.217540
vn -0.976052 -0.000005 0.217536
vn -0.976051 -0.000006 0.217540
vn -0.976051 -0.000006 0.217540
vn -0.976052 -0.000006 0.217536
vn -0.976051 -0.000005 0.217540
vn 0.000000 -1.000000 -0.000000
vn 0.000000 -1.000000 -0.000000
vn 0.000000 -1.000000 -0.000000
vn 0.000000 -1.000000 -0.000000
vn 0.000000 -1.000000 -0.000000
vn 0.000000 -1.000000 -0.000000
vn 0.000000 -1.000000 -0.000000
vn 0.000000 -1.000000 -0.000000
vn 0.000000 -1.000000 -0.000000
vn 0.000000 -1.000000 -0.000000
vn 0.000000 -1.000000 -0.000000
vn 0.000000 -1.000000 -0.000000
vn 0.000000 -1.000000 -0.000000
vn 0.000000 -1.000000 -0.000000
vn 0.000000 -1.000000 -0.000000
vn 0.000000 -1.000000 -0.000000
vn 0.000000 -1.000000 -0.000000
vn 0.000000 -1.000000 -0.000000
vn 0.000000 -1.000000 -0.000000
vn 0.000000 -1.000000 -0.000000
vn 0.000000 -1.000000 -0.000000
vn 0.000000 -1.000000 -0.000000
vn 0.000000 -1.000000 -0.000000
vn 0.000000 -1.000000 -0.000000
vn 0.000000 -1.000000 -0.000000
vn 0.000000 -1.000000 -0.000000
vn 0.000000 -1.000000 -0.000000
vn 0.000000 -1.000000 -0.000000
vn 0.000000 -1.000000 -0.000000
vn 0.000000 -1.000000 -0.000000
vn 0.000000 -1.000000 -0.000000
vn 0.000000 -1.000000 -0.000000
vn 0.000000 -1.000000 -0.000000
vn 0.000000 -1.000000 -0.000000
vn 0.000000 -1.000000 -0.000000
vn 0.000000 -1.000000 -0.000000
vn 0.000000 -1.000000 -0.000000
vn 0.000000 -1.000000 -0.000000
vn 0.000000 -1.000000 -0.000000
vn 0.000000 -1.000000 -0.000000
vn 0.000000 -1.000000 -0.000000
vn 0.000000 -1.000000 -0.000000
vn 0.000000 -1.000000 -0.000000
vn 0.000000 -1.000000 -0.000000
vn 0.000000 -1.000000 -0.000000
vn 0.000000 -1.000000 -0.000000
vn 0.000000 -1.000000 -0.000000
vn 0.000000 -1.000000 -0.000000
vn 1.000000 -0.000000 -0.000006
vn 1.000000 -0.000000 -0.000006
vn 1.000000 0.000000 0.000000
vn 1.000000 0.000000 0.000000
vn 1.000000 0.000000 0.000000
vn 1.000000 -0.000000 -0.000006
vn 1.000000 0.000000 0.000000
vn 1.000000 0.000000 0.000000
vn 1.000000 -0.000000 0.000001
vn 1.000000 -0.000000 0.000001
vn 1.000000 -0.000000 0.000001
vn 1.000000 0.000000 0.000000
vn 1.000000 -0.000000 0.000004
vn 1.000000 -0.000000 0.000004
vn 1.000000 -0.000000 0.000000
vn 1.000000 -0.000000 0.000000
vn 1.000000 -0.000000 0.000000
vn 1.000000 -0.000000 0.000004
vn 1.000000 -0.000000 0.000000
vn 1.000000 -0.000000 0.000000
vn 1.000000 -0.000000 0.000001
vn 1.000000 -0.000000 0.000001
vn 1.000000 -0.000000 0.000001
vn 1.000000 -0.000000 0.000000
vn -0.707107 0.707106 -0.000000
vn -0.707107 0.707106 -0.000000
vn -0.699915 0.699912 0.142278
vn -0.699915 0.699912 0.142278
vn -0.696380 0.696377 0.173536
vn -0.707107 0.707106 -0.000000
vn -0.696380 0.696377 0.173536
vn -0.699915 0.699912 0.142278
vn -0.696378 0.696379 0.173535
vn -0.696378 0.696379 0.173535
vn -0.699913 0.699914 0.142278
vn -0.696380 0.696377 0.173536
vn -0.707107 0.707106 -0.000000
vn -0.707107 0.707106 -0.000000
vn -0.696378 0.696379 -0.173533
vn -0.696378 0.696379 -0.173533
vn -0.699912 0.699914 -0.142279
vn -0.707107 0.707106 -0.000000
vn -0.699912 0.699914 -0.142279
vn -0.696378 0.696379 -0.173533
vn -0.699913 0.699914 -0.142279
vn -0.699913 0.699914 -0.142279
vn -0.696378 0.696379 -0.173533
vn -0.699912 0.699914 -0.142279
vn -0.707107 -0.707106 -0.000000
vn -0.707107 -0.707107 -0.000000
vn -0.696378 -0.696380 0.173532
vn -0.696378 -0.696380 0.173532
vn -0.699912 -0.699914 0.142279
vn -0.707107 -0.707106 -0.000000
vn -0.699912 -0.699914 0.142279
vn -0.696378 -0.696380 0.173532
vn -0.699913 -0.699914 0.142279
vn -0.699913 -0.699914 0.142279
vn -0.696378 -0.696379 0.173533
vn -0.699912 -0.699914 0.142279
vn -0.707107 -0.707106 -0.000000
vn -0.707107 -0.707106 -0.000000
vn -0.699915 -0.699912 -0.142278
vn -0.699915 -0.699912 -0.142278
vn -0.696380 -0.696377 -0.173536
vn -0.707107 -0.707106 -0.000000
vn -0.696380 -0.696377 -0.173536
vn -0.699915 -0.699912 -0.142278
vn -0.696378 -0.696379 -0.173535
vn -0.696378 -0.696379 -0.173535
vn -0.699913 -0.699914 -0.142278
vn -0.696380 -0.696377 -0.173536
# 468 vertex normals

o shelf_plate
g shelf_plate
s 1
f 1//1 2//2 3//3 
f 2//4 1//5 4//6 
f 5//7 6//8 7//9 
f 3//10 6//11 5//12 
f 2//13 8//14 3//15 
f 6//16 3//17 8//18 
f 7//19 9//20 5//21 
f 51//22 54//23 55//24 
f 55//25 50//26 51//27 
f 59//28 51//29 50//30 
f 50//31 58//32 59//33 
f 12//34 13//35 14//36 
f 13//37 15//38 16//39 
f 10//40 11//41 14//42 
f 12//43 14//44 11//45 
f 13//46 12//47 15//48 
f 13//49 17//50 18//51 
f 17//52 13//53 16//54 
f 63//55 66//56 67//57 
f 67//58 62//59 63//60 
f 19//61 20//62 21//63 
f 19//64 22//65 23//66 
f 22//67 19//68 21//69 
f 71//70 74//71 75//72 
f 75//73 70//74 71//75 
f 25//76 26//77 27//78 
f 27//79 28//80 25//81 
f 26//82 25//83 29//84 
f 26//85 29//86 30//87 
f 24//88 30//89 29//90 
f 74//91 78//92 79//93 
f 79//94 75//95 74//96 
f 32//97 31//98 33//99 
f 34//100 21//101 20//102 
f 21//103 34//104 33//105 
f 32//106 33//107 34//108 
f 35//109 25//110 28//111 
f 25//112 35//113 36//114 
s 2
f 30//115 7//116 37//117 
f 78//118 59//119 58//120 
f 58//121 79//122 78//123 
f 11//124 32//125 38//126 
f 46//127 41//128 42//129 
f 42//130 10//131 31//132 
f 46//133 42//134 31//135 
f 45//136 46//137 31//138 
f 13//139 33//140 14//141 
f 33//142 13//143 21//144 
s 4
f 33//145 10//146 14//147 
f 10//148 33//149 31//150 
s 2
f 39//151 15//152 12//153 
f 20//154 39//155 34//156 
f 39//157 20//158 15//159 
s 4
f 19//160 17//161 16//162 
f 17//163 19//164 23//165 
f 22//166 13//167 18//168 
f 13//169 22//170 21//171 
s 2
f 17//172 22//173 18//174 
f 22//175 17//176 23//177 
f 20//178 16//179 15//180 
f 16//181 20//182 19//183 
f 44//184 47//185 48//186 
f 48//187 24//188 9//189 
f 44//190 48//191 9//192 
f 43//193 44//194 9//195 
f 25//196 5//197 29//198 
f 5//199 25//200 3//201 
s 4
f 24//202 5//203 9//204 
f 5//205 24//206 29//207 
s 2
f 8//208 40//209 6//210 
f 27//211 40//212 8//213 
f 40//214 27//215 26//216 
s 4
f 35//217 2//218 4//219 
f 2//220 35//221 28//222 
f 25//223 1//224 3//225 
f 1//226 25//227 36//228 
s 2
f 35//229 1//230 36//231 
f 1//232 35//233 4//234 
f 28//235 8//236 2//237 
f 8//238 28//239 27//240 
s 4
f 6//241 37//242 7//243 
f 37//244 6//245 40//246 
f 39//247 11//248 38//249 
f 11//250 39//251 12//252 
s 8
f 34//253 38//254 32//255 
f 38//256 34//257 39//258 
f 40//259 30//260 37//261 
f 30//262 40//263 26//264 
s 4
f 54//265 67//266 66//267 
f 66//268 55//269 54//270 
f 62//271 71//272 70//273 
f 70//274 63//275 62//276 
s 1
f 10//277 42//278 53//279 
f 53//280 52//281 10//282 
f 52//283 53//284 54//285 
f 54//286 51//287 52//288 
f 43//289 9//290 49//291 
f 49//292 56//293 43//294 
f 56//295 49//296 50//297 
f 50//298 55//299 56//300 
f 60//301 11//302 10//303 
f 10//304 52//305 60//306 
f 59//307 60//308 52//309 
f 52//310 51//311 59//312 
f 9//313 7//314 57//315 
f 57//316 49//317 9//318 
f 49//319 57//320 58//321 
f 58//322 50//323 49//324 
f 47//325 44//326 65//327 
f 65//328 64//329 47//330 
f 64//331 65//332 66//333 
f 66//334 63//335 64//336 
f 41//337 46//338 61//339 
f 61//340 68//341 41//342 
f 68//343 61//344 62//345 
f 62//346 67//347 68//348 
f 45//349 31//350 73//351 
f 73//352 72//353 45//354 
f 72//355 73//356 74//357 
f 74//358 71//359 72//360 
f 24//361 48//362 69//363 
f 69//364 76//365 24//366 
f 76//367 69//368 70//369 
f 70//370 75//371 76//372 
f 31//373 32//374 77//375 
f 77//376 73//377 31//378 
f 73//379 77//380 78//381 
f 78//382 74//383 73//384 
f 80//385 30//386 24//387 
f 24//388 76//389 80//390 
f 79//391 80//392 76//393 
f 76//394 75//395 79//396 
s 2
f 32//397 11//398 60//399 
f 60//400 77//401 32//402 
f 77//403 60//404 59//405 
f 59//406 78//407 77//408 
f 7//409 30//410 80//411 
f 80//412 57//413 7//414 
f 57//415 80//416 79//417 
f 79//418 58//419 57//420 
s 4
f 42//421 41//422 68//423 
f 68//424 53//425 42//426 
f 53//427 68//428 67//429 
f 67//430 54//431 53//432 
f 44//433 43//434 56//435 
f 56//436 65//437 44//438 
f 65//439 56//440 55//441 
f 55//442 66//443 65//444 
f 46//445 45//446 72//447 
f 72//448 61//449 46//450 
f 61//451 72//452 71//453 
f 71//454 62//455 61//456 
f 48//457 47//458 64//459 
f 64//460 69//461 48//462 
f 69//463 64//464 63//465 
f 63//466 70//467 69//468 
# 156 faces

